<?xml version="1.0" encoding="utf-8"?>
<!-- Generator: Adobe Illustrator 16.0.0, SVG Export Plug-In . SVG Version: 6.00 Build 0)  -->
<!DOCTYPE svg PUBLIC "-//W3C//DTD SVG 1.0//EN" "http://www.w3.org/TR/2001/REC-SVG-20010904/DTD/svg10.dtd" [
	<!ENTITY ns_extend "http://ns.adobe.com/Extensibility/1.0/">
	<!ENTITY ns_ai "http://ns.adobe.com/AdobeIllustrator/10.0/">
	<!ENTITY ns_graphs "http://ns.adobe.com/Graphs/1.0/">
	<!ENTITY ns_vars "http://ns.adobe.com/Variables/1.0/">
	<!ENTITY ns_imrep "http://ns.adobe.com/ImageReplacement/1.0/">
	<!ENTITY ns_sfw "http://ns.adobe.com/SaveForWeb/1.0/">
	<!ENTITY ns_custom "http://ns.adobe.com/GenericCustomNamespace/1.0/">
	<!ENTITY ns_adobe_xpath "http://ns.adobe.com/XPath/1.0/">
]>
<svg version="1.0" id="Calque_1" xmlns:x="&ns_extend;" xmlns:i="&ns_ai;" xmlns:graph="&ns_graphs;"
	 xmlns="http://www.w3.org/2000/svg" xmlns:xlink="http://www.w3.org/1999/xlink" x="0px" y="0px" width="27.857px"
	 height="47.482px" viewBox="10.969 -4.991 27.857 47.482" enable-background="new 10.969 -4.991 27.857 47.482"
	 xml:space="preserve">
<metadata>
	<sfw  xmlns="&ns_sfw;">
		<slices></slices>
		<sliceSourceBounds  width="24.906" height="42.452" y="389.923" x="290.444" bottomLeftOrigin="true"></sliceSourceBounds>
	</sfw>
</metadata>
<polygon points="26.147,30.233 26.218,-2.105 26.355,-2.29 26.634,-2.475 26.819,-2.475 26.981,-2.475 27.119,-2.336 27.259,-1.966 
	27.374,-1.434 27.49,-1.109 27.606,-0.832 27.768,-0.322 27.954,0.118 28.139,0.534 28.322,0.974 28.555,1.483 28.81,2.039 
	29.063,2.524 29.342,3.011 29.643,3.613 29.99,4.191 30.477,4.932 30.939,5.626 31.354,6.205 31.889,6.946 32.281,7.456 
	32.675,7.965 33.046,8.52 33.416,8.96 33.879,9.585 34.341,10.14 34.921,10.765 35.222,11.275 35.731,12.039 36.124,12.802 
	36.587,13.775 37.026,15.071 37.235,16.321 37.235,16.76 37.235,17.153 37.351,17.524 37.351,17.871 37.351,18.334 37.189,19.121 
	37.166,19.77 37.072,20.255 36.935,20.788 36.819,21.321 36.656,21.922 36.541,22.431 36.286,23.15 36.102,23.659 35.755,24.422 
	35.476,25.093 35.151,25.418 34.897,25.509 34.689,25.487 34.573,25.487 34.458,25.394 34.341,25.326 34.227,25.208 34.134,25.024 
	34.157,24.886 34.249,24.746 34.318,24.584 34.458,24.515 34.573,24.306 34.643,24.145 34.735,23.914 34.805,23.566 34.967,23.381 
	35.059,22.963 35.151,22.732 35.222,22.408 35.36,22.13 35.406,21.737 35.476,21.367 35.5,21.042 35.567,20.672 35.639,20.255 
	35.707,19.978 35.731,19.584 35.755,19.121 35.777,18.798 35.777,18.38 35.755,17.917 35.731,17.524 35.615,17.085 35.546,16.76 
	35.476,16.321 35.36,15.926 35.199,15.511 35.037,15.071 34.874,14.677 34.643,14.214 34.296,13.635 33.833,12.964 33.53,12.594 
	33.23,12.222 32.629,11.599 32.144,11.251 31.61,10.765 31.217,10.464 30.8,10.117 30.338,9.816 29.828,9.515 29.319,9.191 
	28.902,8.96 28.51,8.728 28.139,8.567 27.791,8.497 27.467,8.404 27.213,8.381 27.213,9.284 27.213,9.631 27.213,10.187 
	27.213,10.65 27.213,11.367 27.213,12.177 27.259,20.858 27.282,30.348 27.213,31.181 27.144,31.853 27.027,32.755 26.889,33.404 
	26.61,34.305 26.147,35.21 25.592,36.042 25.036,36.76 24.272,37.361 23.532,37.895 22.768,38.426 21.866,38.866 21.032,39.283 
	19.968,39.629 18.81,39.863 17.953,39.977 17.167,39.977 16.518,39.977 15.592,39.768 14.967,39.608 14.296,39.306 13.463,38.774 
	13,38.171 12.676,37.686 12.444,36.875 12.444,36.343 12.583,35.417 12.699,34.769 13.139,33.89 13.579,33.218 14.088,32.617 
	14.828,31.899 15.523,31.296 16.264,30.81 17.12,30.301 17.837,29.978 18.556,29.654 19.411,29.422 20.152,29.191 20.87,29.098 
	21.356,29.029 21.889,28.983 22.63,28.983 23.23,29.029 23.833,29.168 24.296,29.306 24.898,29.469 25.384,29.747 "/>
</svg>
